<svg xmlns="http://www.w3.org/2000/svg" xmlns:xlink="http://www.w3.org/1999/xlink" preserveAspectRatio="xMidYMid" width="28" height="28" viewBox="0 0 28 28">
  <defs>
    <style>

      .cls-2 {
        fill: #ffffff;
      }
    </style>
  </defs>
  <path d="M3.478,19.304 C1.271,21.520 3.135,23.795 0.202,27.169 C-1.122,28.692 5.653,28.227 9.009,24.857 C10.433,23.428 10.031,21.344 8.504,19.811 C6.977,18.278 4.902,17.875 3.478,19.304 ZM27.943,0.086 C26.810,-1.051 14.267,9.215 10.532,12.965 C8.679,14.825 8.060,15.822 7.492,16.568 C7.245,16.892 7.572,16.993 7.719,17.069 C8.453,17.451 8.966,17.806 9.630,18.473 C10.294,19.139 10.648,19.655 11.028,20.391 C11.104,20.539 11.204,20.867 11.526,20.619 C12.270,20.049 13.263,19.428 15.116,17.567 C18.851,13.817 29.075,1.223 27.943,0.086 Z" id="path-1" class="cls-2" fill-rule="evenodd"/>
</svg>
