<svg xmlns="http://www.w3.org/2000/svg" xmlns:xlink="http://www.w3.org/1999/xlink" preserveAspectRatio="xMidYMid" width="14" height="14" viewBox="0 0 14 14">
  <defs>
    <style>

      .cls-2 {
        fill: #999999;
      }
    </style>
  </defs>
  <path d="M12.444,1.556 C12.444,1.556 11.744,1.556 11.744,1.556 C11.744,1.556 11.744,3.111 11.744,3.111 C11.744,3.111 9.256,3.111 9.256,3.111 C9.256,3.111 9.256,1.556 9.256,1.556 C9.256,1.556 4.744,1.556 4.744,1.556 C4.744,1.556 4.744,3.111 4.744,3.111 C4.744,3.111 2.256,3.111 2.256,3.111 C2.256,3.111 2.256,1.556 2.256,1.556 C2.256,1.556 1.556,1.556 1.556,1.556 C0.700,1.556 -0.000,2.256 -0.000,3.111 C-0.000,3.111 -0.000,12.444 -0.000,12.444 C-0.000,13.300 0.700,14.000 1.556,14.000 C1.556,14.000 12.444,14.000 12.444,14.000 C13.300,14.000 14.000,13.300 14.000,12.444 C14.000,12.444 14.000,3.111 14.000,3.111 C14.000,2.256 13.300,1.556 12.444,1.556 ZM12.444,12.444 C12.444,12.444 1.556,12.444 1.556,12.444 C1.556,12.444 1.556,6.222 1.556,6.222 C1.556,6.222 12.444,6.222 12.444,6.222 C12.444,6.222 12.444,12.444 12.444,12.444 ZM4.044,-0.000 C4.044,-0.000 2.956,-0.000 2.956,-0.000 C2.956,-0.000 2.956,2.644 2.956,2.644 C2.956,2.644 4.044,2.644 4.044,2.644 C4.044,2.644 4.044,-0.000 4.044,-0.000 ZM11.044,-0.000 C11.044,-0.000 9.956,-0.000 9.956,-0.000 C9.956,-0.000 9.956,2.644 9.956,2.644 C9.956,2.644 11.044,2.644 11.044,2.644 C11.044,2.644 11.044,-0.000 11.044,-0.000 Z" id="path-1" class="cls-2" fill-rule="evenodd"/>
</svg>
