<svg xmlns="http://www.w3.org/2000/svg" xmlns:xlink="http://www.w3.org/1999/xlink" preserveAspectRatio="xMidYMid" width="18" height="16" viewBox="0 0 18 16">
  <defs>
    <style>

      .cls-2 {
        fill: #999999;
      }
    </style>
  </defs>
  <path d="M5.220,9.956 C5.220,9.956 5.220,4.444 5.220,4.444 C5.220,4.444 1.800,4.444 1.800,4.444 C0.810,4.444 -0.000,5.244 -0.000,6.222 C-0.000,6.222 -0.000,11.556 -0.000,11.556 C-0.000,12.533 0.810,13.333 1.800,13.333 C1.800,13.333 2.700,13.333 2.700,13.333 C2.700,13.333 2.700,16.000 2.700,16.000 C2.700,16.000 5.400,13.333 5.400,13.333 C5.400,13.333 9.900,13.333 9.900,13.333 C10.890,13.333 11.700,12.533 11.700,11.556 C11.700,11.556 11.700,9.938 11.700,9.938 C11.642,9.949 11.581,9.956 11.520,9.956 C11.520,9.956 5.220,9.956 5.220,9.956 ZM16.200,-0.000 C16.200,-0.000 8.100,-0.000 8.100,-0.000 C7.110,-0.000 6.300,0.800 6.300,1.778 C6.300,1.778 6.300,8.889 6.300,8.889 C6.300,8.889 12.600,8.889 12.600,8.889 C12.600,8.889 15.300,11.556 15.300,11.556 C15.300,11.556 15.300,8.889 15.300,8.889 C15.300,8.889 16.200,8.889 16.200,8.889 C17.190,8.889 18.000,8.089 18.000,7.111 C18.000,7.111 18.000,1.778 18.000,1.778 C18.000,0.800 17.190,-0.000 16.200,-0.000 Z" id="path-1" class="cls-2" fill-rule="evenodd"/>
</svg>
