<svg xmlns="http://www.w3.org/2000/svg" xmlns:xlink="http://www.w3.org/1999/xlink" preserveAspectRatio="xMidYMid" width="23" height="22" viewBox="0 0 23 22">
  <defs>
    <style>

      .cls-2 {
        fill: #ffffff;
      }
    </style>
  </defs>
  <path d="M18.009,16.436 C14.993,15.338 14.029,14.412 14.029,12.429 C14.029,11.238 14.950,11.627 15.354,9.447 C15.522,8.542 16.335,9.432 16.491,7.367 C16.491,6.544 16.047,6.340 16.047,6.340 C16.047,6.340 16.273,5.122 16.361,4.185 C16.471,3.017 15.686,-0.000 11.500,-0.000 C7.314,-0.000 6.529,3.017 6.639,4.185 C6.727,5.122 6.953,6.340 6.953,6.340 C6.953,6.340 6.509,6.544 6.509,7.367 C6.664,9.432 7.478,8.542 7.645,9.447 C8.050,11.627 8.971,11.238 8.971,12.429 C8.971,14.412 8.007,15.338 4.991,16.436 C1.966,17.538 -0.000,18.661 -0.000,19.427 C-0.000,20.192 -0.000,22.000 -0.000,22.000 C-0.000,22.000 11.500,22.000 11.500,22.000 C11.500,22.000 23.000,22.000 23.000,22.000 C23.000,22.000 23.000,20.192 23.000,19.427 C23.000,18.661 21.034,17.538 18.009,16.436 Z" id="path-1" class="cls-2" fill-rule="evenodd"/>
</svg>
