<svg xmlns="http://www.w3.org/2000/svg" preserveAspectRatio="xMidYMid" width="28" height="28" viewBox="0 0 28 28"><defs><style>.cls-2 { fill: #ffffff; }</style></defs><path d="M3.478 19.304C1.27 21.52 3.135 23.794.202 27.17c-1.324 1.522 5.45 1.057 8.807-2.313 1.423-1.43 1.02-3.513-.506-5.046-1.527-1.532-3.602-1.935-5.026-.506zM27.943.086c-1.133-1.137-13.676 9.13-17.41 12.88-1.854 1.86-2.473 2.856-3.04 3.602-.248.324.08.425.226.5.733.383 1.246.738 1.91 1.405.664.666 1.018 1.182 1.398 1.918.076.15.176.477.498.23.744-.57 1.737-1.192 3.59-3.053 3.735-3.75 13.96-16.344 12.827-17.48z" id="path-1" class="cls-2" fill-rule="evenodd"/></svg>