<svg xmlns="http://www.w3.org/2000/svg" preserveAspectRatio="xMidYMid" width="23" height="22" viewBox="0 0 23 22"><defs><style>.cls-2 { fill: #ffffff; }</style></defs><path d="M18.01 16.436c-3.017-1.098-3.98-2.024-3.98-4.007 0-1.192.92-.803 1.324-2.983.168-.905.98-.015 1.137-2.08 0-.823-.443-1.027-.443-1.027s.226-1.218.314-2.155C16.47 3.017 15.687 0 11.5 0S6.53 3.017 6.64 4.185c.087.937.313 2.155.313 2.155s-.444.204-.444 1.027c.154 2.065.968 1.175 1.135 2.08.405 2.18 1.326 1.79 1.326 2.982 0 1.982-.963 2.908-3.98 4.006C1.967 17.538 0 18.66 0 19.426V22h23v-2.573c0-.766-1.966-1.89-4.99-2.99z" id="path-1" class="cls-2" fill-rule="evenodd"/></svg>