<svg xmlns="http://www.w3.org/2000/svg" width="28" height="106" viewBox="0 0 28 106"><svg xmlns:xlink="http://www.w3.org/1999/xlink" height="28" width="28" preserveAspectRatio="xMidYMid" viewBox="0 0 28 28" id="brush"><defs><style>.cls-2 { fill: #ffffff; }</style></defs><path id="brush-path-1" class="cls-2" fill-rule="evenodd" d="M3.478 19.304C1.27 21.52 3.135 23.794.202 27.17c-1.324 1.522 5.45 1.057 8.807-2.313 1.423-1.43 1.02-3.513-.506-5.046s-3.602-1.935-5.026-.506zM27.943.086c-1.133-1.137-13.676 9.13-17.41 12.88-1.854 1.86-2.473 2.856-3.04 3.602-.248.324.08.425.226.5.733.383 1.246.738 1.91 1.405.664.666 1.018 1.182 1.398 1.918.076.15.176.477.498.23.744-.57 1.737-1.192 3.59-3.053 3.735-3.75 13.96-16.344 12.827-17.48z"/></svg><svg xmlns:xlink="http://www.w3.org/1999/xlink" height="14" width="14" preserveAspectRatio="xMidYMid" viewBox="0 0 14 14" id="calendar" y="28"><path id="calendar-path-1" fill-rule="evenodd" fill="#999" d="M12.444 1.556h-.7V3.11H9.256V1.557H4.744V3.11H2.256V1.557h-.7C.7 1.556 0 2.256 0 3.11v9.334C0 13.3.7 14 1.556 14h10.888C13.3 14 14 13.3 14 12.444V3.11c0-.854-.7-1.554-1.556-1.554zm0 10.888H1.556V6.222h10.888v6.222zM4.044 0H2.956v2.644h1.088V0zm7 0H9.956v2.644h1.088V0z"/></svg><svg xmlns:xlink="http://www.w3.org/1999/xlink" height="16" width="18" preserveAspectRatio="xMidYMid" viewBox="0 0 18 16" id="comments" y="42"><path id="comments-path-1" fill-rule="evenodd" fill="#999" d="M5.22 9.956V4.444H1.8c-.99 0-1.8.8-1.8 1.778v5.334c0 .977.81 1.777 1.8 1.777h.9V16l2.7-2.667h4.5c.99 0 1.8-.8 1.8-1.777V9.938c-.058.01-.12.018-.18.018h-6.3zM16.2 0H8.1c-.99 0-1.8.8-1.8 1.778v7.11h6.3l2.7 2.668V8.89h.9c.99 0 1.8-.8 1.8-1.78V1.78C18 .8 17.19 0 16.2 0z"/></svg><svg xmlns:xlink="http://www.w3.org/1999/xlink" height="26" width="28" preserveAspectRatio="xMidYMid" viewBox="0 0 28 26" id="flag" y="58"><defs><style>.cls-2 { fill: #ffffff; }</style></defs><path id="flag-path-1" class="cls-2" fill-rule="evenodd" d="M27.203 4.86C9.453 11.847 16.643-6.953 2.877 2.944L0 3.96 5.7 26h3.142L6.05 15.204c12.28-10.122 7.308 11.03 21.837-9.723.337-.48-.114-.843-.684-.62z"/></svg><svg xmlns:xlink="http://www.w3.org/1999/xlink" height="22" width="23" preserveAspectRatio="xMidYMid" viewBox="0 0 23 22" id="user" y="84"><defs><style>.cls-2 { fill: #ffffff; }</style></defs><path id="user-path-1" class="cls-2" fill-rule="evenodd" d="M18.01 16.436c-3.017-1.098-3.98-2.024-3.98-4.007 0-1.192.92-.803 1.324-2.983.168-.905.98-.015 1.137-2.08 0-.823-.443-1.027-.443-1.027s.226-1.218.314-2.155C16.47 3.017 15.687 0 11.5 0S6.53 3.017 6.64 4.185c.087.937.313 2.155.313 2.155s-.444.204-.444 1.027c.154 2.065.968 1.175 1.135 2.08.405 2.18 1.326 1.79 1.326 2.982 0 1.982-.963 2.908-3.98 4.006C1.967 17.538 0 18.66 0 19.426V22h23v-2.573c0-.766-1.966-1.89-4.99-2.99z"/></svg></svg>