<svg xmlns="http://www.w3.org/2000/svg" width="28" height="106" viewBox="0 0 28 106"><svg xmlns:xlink="http://www.w3.org/1999/xlink" height="28" width="28" preserveAspectRatio="xMidYMid" viewBox="0 0 28 28" id="brush" y="0"><defs><style>.cls-2 {        fill: #ffffff;      }</style></defs><path id="brush-path-1" class="cls-2" fill-rule="evenodd" d="m3.478 19.304c-2.207 2.216-0.343 4.491-3.276 7.865-1.324 1.523 5.451 1.058 8.807-2.312 1.424-1.429 1.022-3.513-0.505-5.046s-3.602-1.936-5.026-0.507zm24.465-19.218c-1.133-1.137-13.676 9.129-17.411 12.879-1.853 1.86-2.472 2.857-3.04 3.603-0.247 0.324 0.08 0.425 0.227 0.501 0.734 0.382 1.247 0.737 1.911 1.404 0.664 0.666 1.018 1.182 1.398 1.918 0.076 0.148 0.176 0.476 0.498 0.228 0.744-0.57 1.737-1.191 3.59-3.052 3.735-3.75 13.959-16.344 12.827-17.481z"/></svg><svg xmlns:xlink="http://www.w3.org/1999/xlink" height="14" width="14" preserveAspectRatio="xMidYMid" viewBox="0 0 14 14" id="calendar" y="28"><path id="calendar-path-1" fill-rule="evenodd" fill="#999999" d="m12.444 1.556h-0.7v1.555h-2.488v-1.555h-4.512v1.555h-2.488v-1.555h-0.7c-0.856 0-1.556 0.7-1.556 1.555v9.333c0 0.856 0.7 1.556 1.556 1.556h10.888c0.856 0 1.556-0.7 1.556-1.556v-9.333c0-0.855-0.7-1.555-1.556-1.555zm0 10.888h-10.888v-6.222h10.888v6.222zm-8.4-12.444h-1.088v2.644h1.088v-2.644zm7 0h-1.088v2.644h1.088v-2.644z"/></svg><svg xmlns:xlink="http://www.w3.org/1999/xlink" height="16" width="18" preserveAspectRatio="xMidYMid" viewBox="0 0 18 16" id="comments" y="42"><path id="comments-path-1" fill-rule="evenodd" fill="#999999" d="m5.22 9.956v-5.512h-3.42c-0.99 0-1.8 0.8-1.8 1.778v5.334c0 0.977 0.81 1.777 1.8 1.777h0.9v2.667l2.7-2.667h4.5c0.99 0 1.8-0.8 1.8-1.777v-1.618c-0.058 0.011-0.119 0.018-0.18 0.018h-6.3zm10.98-9.956h-8.1c-0.99 0-1.8 0.8-1.8 1.778v7.111h6.3l2.7 2.667v-2.667h0.9c0.99 0 1.8-0.8 1.8-1.778v-5.333c0-0.978-0.81-1.778-1.8-1.778z"/></svg><svg xmlns:xlink="http://www.w3.org/1999/xlink" height="26" width="28" preserveAspectRatio="xMidYMid" viewBox="0 0 28 26" id="flag" y="58"><defs><style>.cls-2 {        fill: #ffffff;      }</style></defs><path id="flag-path-1" class="cls-2" fill-rule="evenodd" d="m27.203 4.861c-17.749 6.985-10.56-11.815-24.326-1.918l-2.878 1.016 5.702 22.041h3.141l-2.793-10.796c12.282-10.122 7.309 11.03 21.838-9.723 0.337-0.482-0.114-0.844-0.684-0.62z"/></svg><svg xmlns:xlink="http://www.w3.org/1999/xlink" height="22" width="23" preserveAspectRatio="xMidYMid" viewBox="0 0 23 22" id="user" y="84"><defs><style>.cls-2 {        fill: #ffffff;      }</style></defs><path id="user-path-1" class="cls-2" fill-rule="evenodd" d="m18.009 16.436c-3.016-1.098-3.98-2.024-3.98-4.007 0-1.191 0.921-0.802 1.325-2.982 0.168-0.905 0.981-0.015 1.137-2.08 0-0.823-0.444-1.027-0.444-1.027s0.226-1.218 0.314-2.155c0.11-1.168-0.675-4.185-4.861-4.185s-4.971 3.017-4.861 4.185c0.088 0.937 0.314 2.155 0.314 2.155s-0.444 0.204-0.444 1.027c0.155 2.065 0.969 1.175 1.136 2.08 0.405 2.18 1.326 1.791 1.326 2.982 0 1.983-0.964 2.909-3.98 4.007-3.025 1.102-4.991 2.225-4.991 2.991v2.573h11.5 11.5v-2.573c0-0.766-1.966-1.889-4.991-2.991z"/></svg></svg>
